<svg preserveAspectRatio="xMidYMid meet" data-bbox="25.127 60.4 150.073 79" viewBox="25.127 60.4 150.073 79" xmlns="http://www.w3.org/2000/svg" data-type="tint" role="img" aria-labelledby="svgcid-st1vsl-dd1gay"><title id="svgcid-st1vsl-dd1gay"></title>
    <g>
        <path d="M172.7 95.2c-1.7-2.3-4.2-3.7-6.9-4.1l-32.2-3.7-26.9-23.6c-2.5-2.2-5.7-3.4-9-3.4H52.3c-3.6 0-6.8 1.8-8.9 4.9l-16.5 25c-1.5 2.3-2.1 5-1.6 7.6l2.9 19.6c.8 5.2 5 9 10.1 9h10.2c1.1 7.3 7.1 12.9 14.5 12.9 7.3 0 13.3-5.6 14.5-12.9h47.6c1.1 7.3 7.1 12.9 14.5 12.9 7.3 0 13.3-5.6 14.5-12.9h8.8c5.1 0 9.3-3.7 10.1-9l2.2-14.3c-.2-2.8-.8-5.6-2.5-8zM72.9 125c-.3 5.4-4.7 9.7-10 9.7-5.5 0-10.1-4.8-10.1-10.5 0-5.8 4.5-10.5 10.1-10.5 5.3 0 9.6 4.3 10 9.7-.1.3-.2.5-.2.9 0 .2.1.5.2.7zm76.3-.6c-.1 5.7-4.6 10.4-10.1 10.4s-10-4.7-10.1-10.4v-.4c.1-5.7 4.6-10.4 10.1-10.4s10 4.7 10.1 10.4v.4zm20.9-21.8l-2.2 14.3c-.4 2.9-2.8 5-5.6 5h-8.8c-1.1-7.3-7.1-12.9-14.5-12.9-7.3 0-13.3 5.6-14.5 12.9H77.3c-1.1-7.3-7.1-12.9-14.5-12.9-7.3 0-13.3 5.6-14.5 12.9H38.2c-2.9 0-5.2-2.1-5.6-5l-2.9-19.6c-.3-1.5.1-3 .9-4.3l16.5-25c1.2-1.8 3.1-2.9 5.2-2.9h45.3c2.3 0 4.3.9 6.1 2.3l27.5 24.2c.3.3.8.4 1.2.5l32.9 3.7c1.6.2 2.9 1 3.9 2.3.8 1.3 1.2 2.9.9 4.5z" fill="#B8B8B8"></path>
        <path d="M112.5 89.2H46.8c-1.3 0-2.3 1-2.3 2.3s1 2.3 2.3 2.3h65.7c1.3 0 2.3-1 2.3-2.3s-1.1-2.3-2.3-2.3z" fill="#B8B8B8"></path>
    </g>
</svg>