<svg preserveAspectRatio="xMidYMid meet" data-bbox="25.215 64.155 149.565 71.692" xmlns="http://www.w3.org/2000/svg" width="200" height="200" viewBox="25.215 64.155 149.565 71.692" data-type="color" role="img" aria-labelledby="svgcid-eljcvm-7hgc8d"><title id="svgcid-eljcvm-7hgc8d"></title>
    <g>
        <path fill="#000001" d="M53.186 130.134a1.287 1.287 0 0 0-1.484-1.062l-4.77.791a10.16 10.16 0 0 0 2.126-5.903 1.25 1.25 0 0 0 .081-.402c0-.713-.578-1.291-1.291-1.291-4.215 0-7.645-3.43-7.645-7.646 0-.713-.578-1.291-1.291-1.291-.141 0-.271.038-.398.08-5.484.179-9.893 4.684-9.893 10.211 0 2.289.765 4.398 2.041 6.104l-3.943-.654a1.29 1.29 0 1 0-.422 2.546l5.021.833-5.021.833a1.29 1.29 0 1 0 .422 2.546l11.997-1.989c.044.001.087.007.132.007.232 0 .458-.02.686-.035l12.167 2.017a1.291 1.291 0 0 0 .422-2.546l-5.021-.833 5.021-.833a1.288 1.288 0 0 0 1.063-1.483zm-21.982-6.513c0-3.837 2.844-7.013 6.532-7.555a10.232 10.232 0 0 0 8.667 8.668 7.657 7.657 0 0 1-4.808 6.013l-2.385.395-3.57-.592c-2.615-1.216-4.436-3.861-4.436-6.929z" data-color="1"></path>
        <path fill="#000001" d="M153.658 94.324l6.978-8.442 6.978 8.442a1.288 1.288 0 0 0 1.818.173 1.29 1.29 0 0 0 .173-1.817l-7.973-9.646c-.49-.594-1.5-.594-1.99 0l-7.973 9.646a1.29 1.29 0 1 0 1.989 1.644z" data-color="1"></path>
        <path fill="#000001" d="M173.919 113.766c-4.086-1.432-8.086-2.555-11.992-3.375V96.57l5.687 6.881c.255.31.624.469.996.469a1.29 1.29 0 0 0 .995-2.113l-7.973-9.647c-.49-.594-1.5-.594-1.99 0l-7.973 9.647a1.29 1.29 0 1 0 1.99 1.644l5.687-6.881v13.318c-7.861-1.393-15.318-1.513-22.292-.357l-17.699-44.562a1.29 1.29 0 0 0-1.2-.814H82.849a1.28 1.28 0 0 0-1.09.572 1.29 1.29 0 0 0-.135.261L67.629 99.43a52.606 52.606 0 0 0-10.515-1.186V86.667l4.405 5.329a1.288 1.288 0 0 0 1.818.173 1.29 1.29 0 0 0 .173-1.817l-6.691-8.095c-.49-.594-1.5-.594-1.99 0l-6.691 8.095a1.29 1.29 0 1 0 1.99 1.644l4.405-5.329v11.618c-4.354.182-8.023.904-10.816 1.69a1.29 1.29 0 1 0 .699 2.485c4.913-1.383 12.683-2.562 22.227-.603l-9.053 22.28a1.29 1.29 0 0 0 1.196 1.777h82.851a1.291 1.291 0 0 0 1.075-2.006 1.322 1.322 0 0 0-.084-.347l-4.595-11.57c10.588-1.639 22.366-.231 35.033 4.21a1.29 1.29 0 0 0 .853-2.435zm-113.216 9.568l21.125-51.991c2.463 25.087 20.471 45.68 44.235 51.991h-65.36zm23.433-56.598h33.141l22.235 55.982c-30.287-.999-54.7-25.616-55.376-55.982z" data-color="1"></path>
    </g>
</svg>